<?xml version="1.0" encoding="UTF-8"?>
<svg version="1.1" xmlns="http://www.w3.org/2000/svg" width="1024" height="1024">
<path d="M0 0 C337.92 0 675.84 0 1024 0 C1024 337.92 1024 675.84 1024 1024 C686.08 1024 348.16 1024 0 1024 C0 686.08 0 348.16 0 0 Z " fill="#000000" transform="translate(0,0)"/>
<path d="M0 0 C52.8 0 105.6 0 160 0 C160 72.6 160 145.2 160 220 C166.85061768 214.05766305 166.85061768 214.05766305 172.5625 207.5 C175.70267272 203.54490356 178.92182841 199.90607242 182.58984375 196.4375 C184.23465305 194.85026988 184.23465305 194.85026988 186 192 C186.66 192 187.32 192 188 192 C188.3403125 191.195625 188.3403125 191.195625 188.6875 190.375 C190.45570089 187.17539839 192.53670203 184.70962777 195 182 C195.66 182 196.32 182 197 182 C197.22945312 181.45214844 197.45890625 180.90429688 197.6953125 180.33984375 C199.37967975 177.31907734 201.51065681 175.08789265 203.875 172.5625 C204.3604126 172.04026855 204.8458252 171.51803711 205.34594727 170.97998047 C206.89318013 169.31609215 208.44616143 167.65771906 210 166 C211.98300221 163.87854348 213.9622439 161.7536709 215.9375 159.625 C216.43846191 159.08528564 216.93942383 158.54557129 217.45556641 157.98950195 C220.98860603 154.15836565 224.3879108 150.23130226 227.75 146.25 C233.6824779 139.23366592 239.97450148 132.58196853 246.296875 125.91796875 C250.62161279 121.35696004 254.82470979 116.69822284 259 112 C263.78358235 106.66079284 268.59049354 101.34421176 273.4375 96.0625 C273.89705078 95.56097412 274.35660156 95.05944824 274.83007812 94.54272461 C277.12858544 92.03507892 279.43230558 89.53261868 281.74609375 87.0390625 C286.20462666 82.20291238 290.25372842 77.39903845 294 72 C296.1875 69.5625 296.1875 69.5625 298 68 C298.66 68 299.32 68 300 68 C300.2678833 67.40993164 300.5357666 66.81986328 300.81176758 66.21191406 C302.01173483 63.97815542 303.26612013 62.43726575 305.01171875 60.609375 C305.60122314 59.98635498 306.19072754 59.36333496 306.7980957 58.72143555 C307.42159912 58.07086182 308.04510254 57.42028809 308.6875 56.75 C309.96703096 55.39797253 311.24568767 54.04511712 312.5234375 52.69140625 C313.13155273 52.0483252 313.73966797 51.40524414 314.36621094 50.74267578 C316.76717228 48.18169819 319.07294729 45.54627532 321.36328125 42.88671875 C323.37873772 40.56341213 325.43848462 38.28251535 327.5 36 C330.15113994 33.06321535 332.78290171 30.11397458 335.375 27.125 C338.82271755 23.16413379 342.37759056 19.30403108 345.93505859 15.44213867 C349.20509804 11.88589993 352.41207045 8.2834681 355.5625 4.62109375 C356.2740625 3.81865234 356.2740625 3.81865234 357 3 C357.37391782 2.47900569 357.74783564 1.95801138 358.1330843 1.42122936 C360.97003462 -0.73845953 363.88590724 -0.40328473 367.30815125 -0.36076355 C368.0580046 -0.36332682 368.80785796 -0.3658901 369.58043414 -0.36853105 C372.10030762 -0.37348383 374.61958575 -0.35695181 377.1394043 -0.34057617 C378.9427794 -0.33973022 380.74615553 -0.34020442 382.54953003 -0.34190369 C387.45217863 -0.34276631 392.35460815 -0.32509731 397.25720572 -0.30418181 C402.37814973 -0.28545954 407.49909846 -0.28366809 412.62007141 -0.28010559 C422.32045352 -0.27077203 432.02073449 -0.24614051 441.72107202 -0.21605712 C452.76323891 -0.18255389 463.80541056 -0.16603737 474.8476156 -0.15097082 C497.56513319 -0.1195921 520.28256093 -0.06680614 543 0 C543 0.66 543 1.32 543 2 C541.59566873 3.13031541 540.18987355 4.25885321 538.77734375 5.37890625 C536.72396342 7.25176963 535.16265353 9.27448826 533.5 11.5 C530.66992909 15.26722159 527.66652803 18.02094598 524 21 C522.23935302 22.88427595 520.56645964 24.82906459 518.890625 26.7890625 C512.49577741 34.26733468 505.74567254 41.42611157 499.02001953 48.60498047 C495.52137669 52.34694104 492.08861791 56.12861705 488.7421875 60.0078125 C482.34005664 67.32863478 475.64016159 74.39562433 469 81.5 C467.22864261 83.39712424 465.45762031 85.29455969 463.68701172 87.19238281 C462.59818809 88.35904708 461.50871674 89.52510734 460.41845703 90.69042969 C455.15181567 96.32704877 450.12761465 102.02260287 445.4765625 108.18359375 C443.58497266 110.5105495 441.36544654 112.16677893 439 114 C437.30589086 115.82408047 435.69589122 117.7094794 434.078125 119.6015625 C431.64615567 122.40838424 429.14139627 125.14420225 426.625 127.875 C418.68663187 136.50590453 410.85452123 145.22440108 403.1875 154.09765625 C399.91079343 157.87575542 396.53763001 161.46236999 393 165 C392.34 165.825 391.68 166.65 391 167.5 C388.13691156 171.07886055 384.83176559 174.1802696 381.5703125 177.39453125 C377.1259221 181.789224 372.81900759 186.22799116 368.74609375 190.96875 C362.22466811 198.55519594 355.36545292 205.82862642 348.51196289 213.11303711 C344.41436949 217.47389664 340.37030407 221.87273354 336.41015625 226.359375 C334.41607998 228.54413279 332.38350876 230.65886852 330.30859375 232.765625 C329.66027588 233.43327881 329.01195801 234.10093262 328.34399414 234.78881836 C327.05198763 236.11670949 325.74806708 237.43313288 324.43139648 238.73657227 C321.05927609 242.07617679 321.05927609 242.07617679 319.7265625 246.4453125 C321.67973084 250.36363181 324.27537938 253.64977852 327 257.0625 C328.19704821 258.59341104 329.39366152 260.12466223 330.58984375 261.65625 C331.17620605 262.40132813 331.76256836 263.14640625 332.36669922 263.9140625 C334.47153047 266.60220572 336.52122013 269.32575646 338.5625 272.0625 C339.62210938 273.47982422 339.62210938 273.47982422 340.703125 274.92578125 C341.46109375 275.94027344 342.2190625 276.95476562 343 278 C344.93649416 280.58408799 346.874553 283.16700147 348.8125 285.75 C349.83596365 287.11456372 350.85940093 288.47914722 351.8828125 289.84375 C352.39618164 290.52824219 352.90955078 291.21273438 353.43847656 291.91796875 C354.99804688 293.99739583 356.55761719 296.07682292 358.1171875 298.15625 C358.62580322 298.83437744 359.13441895 299.51250488 359.65844727 300.21118164 C360.6772689 301.56966471 361.69598646 302.92822583 362.71459961 304.28686523 C364.89459177 307.19435355 367.07589346 310.10079805 369.26171875 313.00390625 C373.19140499 318.22653916 377.0857846 323.47241842 380.95361328 328.7409668 C386.59185328 336.41979298 392.29519463 344.03841722 398.10668945 351.58691406 C402.12348265 356.81803015 406.04303768 362.11486981 409.9375 367.4375 C414.54314124 373.73023613 419.24554066 379.93012222 424.0625 386.0625 C429.3420418 392.78593715 434.40493826 399.6362351 439.37817383 406.58862305 C443.36818633 412.15749238 447.48749475 417.60407977 451.6875 423.015625 C457.28318549 430.23708398 462.70230526 437.58951208 468.11083984 444.95141602 C473.50203624 452.28883286 478.93939858 459.57536744 484.515625 466.7734375 C488.90432131 472.45188756 493.17937759 478.21708626 497.4765625 483.96484375 C498.96068409 485.94747797 500.44836817 487.92737696 501.9375 489.90625 C507.98145908 497.94137347 513.96356162 506.01926538 519.91381836 514.12402344 C523.36584755 518.81513172 526.86487501 523.46267587 530.4375 528.0625 C542 542.98863636 542 542.98863636 542 545 C517.6610271 545.32729212 493.32238474 545.57404083 468.98165321 545.72537041 C457.67923982 545.79750934 446.37819498 545.89582366 435.07666016 546.05615234 C425.22412423 546.19585804 415.37257943 546.28605209 405.51908052 546.31723893 C400.30284992 546.33546628 395.08945417 546.3781734 389.87413406 546.48022079 C384.95988871 546.57559381 380.04963113 546.60450128 375.13454819 546.58350754 C373.33568853 546.58734474 371.53668928 546.6150107 369.7386322 546.66887665 C356.51142219 547.04554294 356.51142219 547.04554294 352.29816389 543.61386156 C348.81970391 539.80901718 346.42743279 535.52071165 344 531 C343.06606999 529.65216977 342.10889332 528.31946768 341.109375 527.01953125 C339.87535159 525.34215836 338.64142049 523.66471726 337.40844727 521.98657227 C334.79191268 518.42723959 332.16815245 514.87326905 329.54296875 511.3203125 C324.27263257 504.18420561 319.0050316 497.05040551 313.875 489.8125 C307.63119811 481.0086879 301.09887717 472.42088131 294.58984375 463.8125 C290.26540737 458.07709232 286.03542817 452.28635775 281.87719727 446.43017578 C278.73127799 442.0051064 275.53271382 437.6212361 272.3125 433.25 C269.28309349 429.13716718 266.28427452 425.01179924 263.375 420.8125 C260.23635894 416.29285687 256.9466699 411.90007773 253.6328125 407.5078125 C248.65030918 400.88891769 243.76601571 394.19633437 238.85693359 387.52294922 C236.99603258 384.99460961 235.13313463 382.4677545 233.26953125 379.94140625 C227.67311496 372.3541288 222.07930819 364.76587361 216.55078125 357.12890625 C215.49370171 355.67775172 214.40610512 354.24845797 213.29296875 352.83984375 C212 351 212 351 212 349 C207.59647747 352.59471227 203.77277453 356.25393068 200.09765625 360.58203125 C196.8846864 364.28562219 193.5261012 367.85330784 190.17504883 371.43188477 C188.08075681 373.68196463 186.07226884 375.9003862 184.265625 378.390625 C183.84796875 378.92171875 183.4303125 379.4528125 183 380 C182.34 380 181.68 380 181 380 C180.731875 380.58265625 180.46375 381.1653125 180.1875 381.765625 C178.98519009 384.02786601 177.66174087 385.80576318 176 387.75 C175.484375 388.36359375 174.96875 388.9771875 174.4375 389.609375 C173 391 173 391 171 391 C170.67 391.99 170.34 392.98 170 394 C168.35570171 395.68873879 166.68615782 397.35305515 165 399 C161.54410523 402.70893462 160.49945138 404.88091934 160.48774719 409.94744873 C160.46904572 411.73518456 160.46904572 411.73518456 160.44996643 413.55903625 C160.45656784 414.85794296 160.46316925 416.15684967 160.4699707 417.49511719 C160.46287001 418.88338693 160.45400533 420.27164861 160.44351196 421.65989685 C160.41992949 425.42204164 160.42062981 429.18383934 160.42542672 432.94604015 C160.42602022 436.88143218 160.40332928 440.81668536 160.38285828 444.75201416 C160.34745887 452.20218352 160.3314317 459.65225533 160.3230831 467.10249925 C160.31011076 478.05259501 160.27189613 489.00260994 160.22898388 499.95262527 C160.22584519 500.7543563 160.22270651 501.55608732 160.21947271 502.38211322 C160.2131934 503.9799479 160.20684985 505.57778234 160.20044011 507.1756165 C160.18233464 511.86609151 160.17125812 516.55651827 160.16614306 521.24702501 C160.16232278 524.15661109 160.15471488 527.06617955 160.1463356 529.97575569 C160.14194282 531.97819188 160.14263784 533.98063716 160.14344788 535.983078 C160.1394397 537.16362259 160.13543152 538.34416718 160.13130188 539.56048584 C160.1300446 540.59285244 160.12878733 541.62521904 160.12749195 542.68886948 C160 545 160 545 159 546 C106.53 546 54.06 546 0 546 C0 365.82 0 185.64 0 0 Z " fill="#A0DC31" transform="translate(240,239)"/>
<path d="M0 0 C0.33 0 0.66 0 1 0 C1 177.54 1 355.08 1 538 C51.82 538 102.64 538 155 538 C155 492.13 155 446.26 155 399 C155.66 399 156.32 399 157 399 C157 398.34 157 397.68 157 397 C157.66 397 158.32 397 159 397 C159 396.34 159 395.68 159 395 C159.66 395 160.32 395 161 395 C161.66 393.35 162.32 391.7 163 390 C163.99 390.33 164.98 390.66 166 391 C164.90751403 392.50852857 163.80061501 394.00662831 162.6875 395.5 C162.07261719 396.3353125 161.45773437 397.170625 160.82421875 398.03125 C160.22222656 398.6809375 159.62023437 399.330625 159 400 C158.01 400 157.02 400 156 400 C156 445.87 156 491.74 156 539 C104.52 539 53.04 539 0 539 C0 361.13 0 183.26 0 0 Z " fill="#A5E13F" transform="translate(242,243)"/>
<path d="M0 0 C62.04 0 124.08 0 188 0 C188 0.33 188 0.66 188 1 C187.12343246 1.01213028 187.12343246 1.01213028 186.22915649 1.02450562 C180.16231025 1.11037564 174.09579741 1.20987075 168.02929688 1.31738281 C165.76340318 1.35573271 163.49744735 1.39057483 161.23144531 1.421875 C157.97959133 1.46739527 154.7281674 1.52541076 151.4765625 1.5859375 C150.45881744 1.59748871 149.44107239 1.60903992 148.39248657 1.62094116 C147.45166229 1.64081085 146.51083801 1.66068054 145.54150391 1.68115234 C144.71099518 1.69447601 143.88048645 1.70779968 143.02481079 1.7215271 C140.77386386 1.82335542 140.77386386 1.82335542 139 4 C137.00475883 4.24609566 137.00475883 4.24609566 134.50753784 4.24050903 C133.08983597 4.24463303 133.08983597 4.24463303 131.64349365 4.24884033 C130.60340149 4.24164978 129.56330933 4.23445923 128.49169922 4.22705078 C126.85266129 4.22748886 126.85266129 4.22748886 125.18051147 4.22793579 C121.55515708 4.22653825 117.93000615 4.21095699 114.3046875 4.1953125 C111.79647941 4.19158388 109.28826988 4.1887362 106.78005981 4.18673706 C100.84437714 4.17987119 94.90876016 4.16409528 88.97311127 4.14403808 C81.55370182 4.11951013 74.13428335 4.1087526 66.71484375 4.09765625 C53.47652514 4.07618515 40.23826721 4.04241739 27 4 C26.67 3.34 26.34 2.68 26 2 C13.13 1.505 13.13 1.505 0 1 C0 0.67 0 0.34 0 0 Z " fill="#1C2C0E" transform="translate(595,784)"/>
<path d="M0 0 C0.75241663 -0.00512655 1.50483326 -0.0102531 2.2800504 -0.015535 C4.79127217 -0.02538719 7.30006711 0.00752464 9.81106567 0.04037476 C11.61488285 0.04206787 13.41870415 0.0411159 15.22251892 0.03771973 C20.11286666 0.0359991 25.00233036 0.07125998 29.89247274 0.11316347 C35.0053569 0.15068628 40.11826161 0.15419706 45.23126221 0.16131592 C54.91044159 0.17996018 64.58921409 0.22919166 74.26821434 0.28941286 C85.28864249 0.35649093 96.30909013 0.38947029 107.32967162 0.41958547 C129.99703502 0.48229096 152.66403731 0.587818 175.33108521 0.7215271 C175.33108521 1.3815271 175.33108521 2.0415271 175.33108521 2.7215271 C172.83108521 4.3465271 172.83108521 4.3465271 170.33108521 5.7215271 C170.33108521 4.7315271 170.33108521 3.7415271 170.33108521 2.7215271 C147.58294269 2.80535959 124.83487232 2.90046794 102.08683395 3.00905418 C91.52487389 3.05920718 80.96292169 3.10564979 70.40090942 3.1434021 C61.1966326 3.17631075 51.99241636 3.21613572 42.78820634 3.26431715 C37.91323746 3.28959334 33.03830883 3.31137133 28.16329193 3.32487106 C23.57671287 3.33768124 18.99027174 3.35972437 14.40376854 3.38891029 C12.71872891 3.39799424 11.03366706 3.4036782 9.3486042 3.40574074 C7.05083876 3.40905752 4.75346573 3.42451884 2.45578003 3.4430542 C1.16895702 3.44858496 -0.11786598 3.45411572 -1.44368362 3.45981407 C-4.50493532 3.7082209 -6.15921529 4.01620304 -8.66891479 5.7215271 C-10.0118596 7.38045892 -11.34636167 9.04629315 -12.66891479 10.7215271 C-13.32891479 10.7215271 -13.98891479 10.7215271 -14.66891479 10.7215271 C-14.99891479 11.7115271 -15.32891479 12.7015271 -15.66891479 13.7215271 C-17.73141479 14.4090271 -17.73141479 14.4090271 -19.66891479 14.7215271 C-18.80061474 13.50837028 -17.92380704 12.30130263 -17.04391479 11.0965271 C-16.55664917 10.42363647 -16.06938354 9.75074585 -15.56735229 9.0574646 C-14.94086792 8.28660522 -14.31438354 7.51574585 -13.66891479 6.7215271 C-13.26358107 6.22149371 -12.85824735 5.72146031 -12.44063079 5.20627439 C-8.66508335 0.9635887 -5.70244125 -0.14348784 0 0 Z " fill="#719839" transform="translate(607.6689147949219,238.27847290039063)"/>
<path d="M0 0 C2.99569651 2.84326063 5.40279198 5.79207302 7.75 9.1875 C8.36359375 10.06792969 8.9771875 10.94835937 9.609375 11.85546875 C11 14 11 14 11 15 C-51.04 15 -113.08 15 -177 15 C-177.33 14.01 -177.66 13.02 -178 12 C-117.28 12 -56.56 12 6 12 C5.67 10.68 5.34 9.36 5 8 C4.01 7.67 3.02 7.34 2 7 C0.8125 3.4375 0.8125 3.4375 0 0 Z " fill="#9ACB48" transform="translate(771,769)"/>
<path d="M0 0 C58.74 0 117.48 0 178 0 C176.875 5.625 176.875 5.625 174 8 C173.4375 6.0625 173.4375 6.0625 173 4 C173.33 3.67 173.66 3.34 174 3 C166.12538167 2.81243783 158.25041949 2.65011613 150.375 2.5 C149.10698547 2.47565887 147.83897095 2.45131775 146.53253174 2.42623901 C125.87518017 2.04819288 105.22312128 1.96985218 84.5625 2.00390625 C82.70725645 2.00653284 82.70725645 2.00653284 80.81453323 2.00921249 C68.21142488 2.02735475 55.60844823 2.05514613 43.00544357 2.11018467 C38.21217448 2.12932066 33.41890694 2.14064945 28.62561035 2.15031242 C26.360643 2.15684188 24.09568308 2.16704402 21.83074951 2.18103218 C18.71052294 2.20009793 15.59049156 2.20705422 12.47021484 2.21118164 C11.54813421 2.21994072 10.62605358 2.2286998 9.67603111 2.2377243 C8.83462389 2.23642265 7.99321667 2.235121 7.12631226 2.23377991 C6.03253549 2.23849351 6.03253549 2.23849351 4.91666222 2.24330235 C3 2 3 2 0 0 Z " fill="#A9E342" transform="translate(600,241)"/>
<path d="M0 0 C28.05 0 56.1 0 85 0 C85 0.66 85 1.32 85 2 C94.9 2 104.8 2 115 2 C115 2.33 115 2.66 115 3 C100.44882951 3.02334947 85.89766192 3.04092281 71.34647655 3.05181217 C64.59027162 3.05697077 57.83407832 3.06400518 51.07788086 3.07543945 C44.56159318 3.08646246 38.04531306 3.09227934 31.52901649 3.09487724 C29.03905357 3.09672937 26.54909132 3.10034593 24.05913353 3.10573006 C20.58001635 3.11295598 17.10094961 3.11399028 13.62182617 3.11352539 C12.06708084 3.1189183 12.06708084 3.1189183 10.48092651 3.12442017 C9.53441727 3.1230455 8.58790802 3.12167084 7.61271667 3.12025452 C6.78955554 3.12117631 5.96639441 3.1220981 5.11828899 3.12304783 C3 3 3 3 0 2 C0 1.34 0 0.68 0 0 Z " fill="#050E04" transform="translate(240,785)"/>
<path d="M0 0 C0.99 0 1.98 0 3 0 C6 4.22222222 6 4.22222222 6 7 C6.598125 7.2475 7.19625 7.495 7.8125 7.75 C10.33586869 9.19192497 11.50030076 10.52549626 13 13 C13 13.99 13 14.98 13 16 C13.66 16 14.32 16 15 16 C15.33 17.32 15.66 18.64 16 20 C16.66 20 17.32 20 18 20 C18 20.66 18 21.32 18 22 C18.66 22 19.32 22 20 22 C20.391875 22.886875 20.78375 23.77375 21.1875 24.6875 C22.85906295 28.11070142 22.85906295 28.11070142 25.6875 30.6875 C28 33 28 33 28 36 C29.485 36.495 29.485 36.495 31 37 C31 37.99 31 38.98 31 40 C31.99 40 32.98 40 34 40 C37 45.625 37 45.625 37 49 C37.99 49.33 38.98 49.66 40 50 C43.80358075 54.10386344 47.79639956 58.81629229 50 64 C49.6328125 66.2421875 49.6328125 66.2421875 49 68 C48.56171875 67.3915625 48.1234375 66.783125 47.671875 66.15625 C43.62529029 60.56340934 39.52525528 55.0161188 35.375 49.5 C26.21363448 37.31070073 17.12190148 25.07194565 8.3125 12.625 C7.81943359 11.92963135 7.32636719 11.2342627 6.81835938 10.51782227 C4.40247403 7.08501183 2.10060772 3.63917994 0 0 Z " fill="#A3D150" transform="translate(456,594)"/>
<path d="M0 0 C0.99 0.33 1.98 0.66 3 1 C-2.31027061 7.15304083 -7.80593866 13.10028988 -13.39453125 19 C-17.14465113 22.97528236 -20.79590653 27.01608968 -24.37890625 31.14257812 C-26.62731624 33.71876837 -28.93360625 36.23465218 -31.25 38.75 C-32.18883092 39.77080681 -33.12763203 40.79164104 -34.06640625 41.8125 C-34.54352051 42.33070313 -35.02063477 42.84890625 -35.51220703 43.3828125 C-38.07469136 46.16815811 -40.63072004 48.95941913 -43.1875 51.75 C-44.11846138 52.76565085 -45.04944828 53.78127831 -45.98046875 54.796875 C-46.64691406 55.52390625 -47.31335938 56.2509375 -48 57 C-48.495 55.515 -48.495 55.515 -49 54 C-47.515 53.505 -47.515 53.505 -46 53 C-46 52.34 -46 51.68 -46 51 C-45.34 51 -44.68 51 -44 51 C-43.34 49.02 -42.68 47.04 -42 45 C-41.01 45 -40.02 45 -39 45 C-38.731875 44.195625 -38.46375 43.39125 -38.1875 42.5625 C-37.795625 41.716875 -37.40375 40.87125 -37 40 C-35.515 39.505 -35.515 39.505 -34 39 C-34 38.34 -34 37.68 -34 37 C-33.34 37 -32.68 37 -32 37 C-31.34 35.68 -30.68 34.36 -30 33 C-29.34 33 -28.68 33 -28 33 C-27.67 31.68 -27.34 30.36 -27 29 C-26.34 29 -25.68 29 -25 29 C-24.773125 28.278125 -24.54625 27.55625 -24.3125 26.8125 C-22.73664872 23.43567583 -20.79123384 21.44232961 -18 19 C-17.34 19 -16.68 19 -16 19 C-15.731875 18.4225 -15.46375 17.845 -15.1875 17.25 C-13.9611378 14.92636635 -12.75156566 12.96175354 -11 11 C-10.01 11 -9.02 11 -8 11 C-7.7525 10.46375 -7.505 9.9275 -7.25 9.375 C-3.14285714 1.57142857 -3.14285714 1.57142857 0 0 Z " fill="#97C54B" transform="translate(753,268)"/>
<path d="M0 0 C0.495 0.99 0.495 0.99 1 2 C-2.08121177 9.95756432 -7.01751606 16.12622621 -14 21 C-14.66 21 -15.32 21 -16 21 C-16.08507812 21.56332031 -16.17015625 22.12664062 -16.2578125 22.70703125 C-17.22151752 25.68437255 -18.78425049 27.37082701 -20.875 29.6875 C-21.57367188 30.47511719 -22.27234375 31.26273437 -22.9921875 32.07421875 C-25 34 -25 34 -28 35 C-29.69882448 37.49759982 -29.69882448 37.49759982 -31 40 C-32.32 39.67 -33.64 39.34 -35 39 C-34.56244385 38.54262451 -34.1248877 38.08524902 -33.67407227 37.61401367 C-26.15651239 29.73880409 -18.7327067 21.90561574 -11.96484375 13.37109375 C-9.38141877 10.25352126 -6.55692769 7.44822196 -3.62890625 4.65625 C-1.7933979 2.893707 -1.7933979 2.893707 0 0 Z " fill="#99C647" transform="translate(482,369)"/>
<path d="M0 0 C3.33049122 1.42630308 5.31738937 3.15014396 7.6875 5.875 C8.28949219 6.55304687 8.89148438 7.23109375 9.51171875 7.9296875 C11.00766194 10.01065834 11.5789756 11.49630826 12 14 C12.66 14 13.32 14 14 14 C14.33 15.65 14.66 17.3 15 19 C15.66 19 16.32 19 17 19 C21 24.29411765 21 24.29411765 21 28 C21.99 28 22.98 28 24 28 C27.77384952 31.68659288 29.61503694 35.7388382 30 41 C26.32724201 37.50861277 23.31508192 33.86438453 20.4375 29.6875 C16.11589006 23.50925387 11.63141602 17.47425842 7.02319336 11.5065918 C4.2183823 7.82372023 1.93015043 4.23978806 0 0 Z " fill="#9DCC4A" transform="translate(506,662)"/>
<path d="M0 0 C4.56404929 4.24662481 8.10590376 9.01939331 11.75 14.0625 C12.98657416 15.75810794 14.22355377 17.45342026 15.4609375 19.1484375 C16.36150879 20.3854541 16.36150879 20.3854541 17.28027344 21.64746094 C19.61925349 24.84712189 21.99092273 28.0213627 24.375 31.1875 C25.08398438 32.12980469 25.79296875 33.07210937 26.5234375 34.04296875 C27.25433594 35.01169922 27.25433594 35.01169922 28 36 C27.01 36.495 27.01 36.495 26 37 C25.34 36.34 24.68 35.68 24 35 C23.34 35 22.68 35 22 35 C21.69707031 34.43152344 21.39414062 33.86304688 21.08203125 33.27734375 C18.35371367 28.24884458 15.54294699 23.50050023 12 19 C11.34 19 10.68 19 10 19 C9.319375 17.5459375 9.319375 17.5459375 8.625 16.0625 C7.34213779 12.92920418 7.34213779 12.92920418 5 12 C3.98308736 10.00854609 2.98357352 8.00812926 2 6 C1.34 5.34 0.68 4.68 0 4 C0 2.68 0 1.36 0 0 Z " fill="#95C149" transform="translate(638,592)"/>
<path d="M0 0 C0.66 1.32 1.32 2.64 2 4 C-8.60772374 15.85456287 -8.60772374 15.85456287 -12.9375 19.4375 C-15.73115753 21.77505017 -17.84979214 24.07571731 -20 27 C-20.99 26.67 -21.98 26.34 -23 26 C-22.26394531 25.21496094 -21.52789063 24.42992187 -20.76953125 23.62109375 C-15.79646859 18.27975059 -11.14116944 13.02351919 -7 7 C-4.8125 4.5625 -4.8125 4.5625 -3 3 C-2.34 3 -1.68 3 -1 3 C-0.67 2.01 -0.34 1.02 0 0 Z " fill="#99C845" transform="translate(541,304)"/>
<path d="M0 0 C1 3 1 3 -0.25 6.125 C-2 9 -2 9 -5 10 C-6.00739746 11.66220581 -7.00522955 13.33020674 -8 15 C-9.13662236 16.46137161 -10.30593145 17.89767928 -11.5 19.3125 C-12.0878125 20.00988281 -12.675625 20.70726562 -13.28125 21.42578125 C-15 23 -15 23 -18 23 C-18 23.99 -18 24.98 -18 26 C-19.32 25.67 -20.64 25.34 -22 25 C-21.43152344 24.3709375 -20.86304688 23.741875 -20.27734375 23.09375 C-13.41251147 15.483986 -6.65619271 7.79261586 0 0 Z " fill="#99C748" transform="translate(585,255)"/>
<path d="M0 0 C0.99 0.33 1.98 0.66 3 1 C2.32795532 1.70962891 2.32795532 1.70962891 1.64233398 2.43359375 C-0.42748955 4.62093913 -2.4950023 6.81045618 -4.5625 9 C-5.26697266 9.74378906 -5.97144531 10.48757813 -6.69726562 11.25390625 C-11.24598133 16.07512566 -15.6676145 20.98392194 -20 26 C-22.33333333 28.66666667 -24.66666667 31.33333333 -27 34 C-27.99 33.34 -28.98 32.68 -30 32 C-28.37660195 30.29115995 -26.70680947 28.62553283 -25 27 C-24.34 27 -23.68 27 -23 27 C-22.731875 26.360625 -22.46375 25.72125 -22.1875 25.0625 C-21 23 -21 23 -18 22 C-16.89163577 20.11683841 -16.89163577 20.11683841 -16 18 C-15.34 17.01 -14.68 16.02 -14 15 C-13.34 15 -12.68 15 -12 15 C-11.731875 14.4225 -11.46375 13.845 -11.1875 13.25 C-9.97070811 10.94449957 -8.69666121 8.97943808 -7 7 C-6.34 7 -5.68 7 -5 7 C-4.731875 6.401875 -4.46375 5.80375 -4.1875 5.1875 C-3.01506533 3.02775192 -1.80630718 1.64209744 0 0 Z " fill="#97C64A" transform="translate(673,356)"/>
<path d="M0 0 C4.12679391 3.90760523 7.50566887 8.11869564 10.875 12.6875 C11.39803711 13.39068359 11.92107422 14.09386719 12.45996094 14.81835938 C16.40645036 20.1438015 20.26251228 25.5253701 24 31 C23.01 31.33 22.02 31.66 21 32 C20.731875 31.030625 20.46375 30.06125 20.1875 29.0625 C19.795625 28.051875 19.40375 27.04125 19 26 C18.01 25.67 17.02 25.34 16 25 C11 19.53488372 11 19.53488372 11 17 C10.071875 16.690625 10.071875 16.690625 9.125 16.375 C6.15346355 14.45224112 5.86975341 12.33405473 5 9 C4.34 9 3.68 9 3 9 C0.56839395 5.63316085 0 4.26649636 0 0 Z " fill="#99C74D" transform="translate(692,664)"/>
<path d="M0 0 C0.33 0.66 0.66 1.32 1 2 C-1.76756757 9.61081081 -1.76756757 9.61081081 -5 12 C-5.66 12 -6.32 12 -7 12 C-7.66 13.32 -8.32 14.64 -9 16 C-9.99 16 -10.98 16 -12 16 C-12.226875 16.721875 -12.45375 17.44375 -12.6875 18.1875 C-14.27279974 21.58457087 -16.15923323 23.5749552 -19 26 C-19.99 26 -20.98 26 -22 26 C-20.49017269 22.57143381 -18.48286031 20.04321784 -16 17.25 C-15.29875 16.45078125 -14.5975 15.6515625 -13.875 14.828125 C-12 13 -12 13 -10 13 C-9.773125 12.46375 -9.54625 11.9275 -9.3125 11.375 C-7.54429911 8.17539839 -5.46329797 5.70962777 -3 3 C-2.34 3 -1.68 3 -1 3 C-0.67 2.01 -0.34 1.02 0 0 Z " fill="#8FB943" transform="translate(438,418)"/>
<path d="M0 0 C1.32 0.33 2.64 0.66 4 1 C4.33 2.65 4.66 4.3 5 6 C5.99 6 6.98 6 8 6 C12 12.75 12 12.75 12 15 C12.99 15.33 13.98 15.66 15 16 C15.68486725 17.32407669 16.34870203 18.65909241 17 20 C17.61875 20.5775 18.2375 21.155 18.875 21.75 C21.69485332 24.73572705 23.6307823 28.11914982 25 32 C24.67 32.66 24.34 33.32 24 34 C17.91143452 25.72735993 11.84571948 17.43810357 5.8125 9.125 C4.94782104 7.93898193 4.94782104 7.93898193 4.06567383 6.72900391 C3.53482178 5.99601074 3.00396973 5.26301758 2.45703125 4.5078125 C1.98241455 3.85441895 1.50779785 3.20102539 1.01879883 2.52783203 C0 1 0 1 0 0 Z " fill="#9BC94A" transform="translate(560,736)"/>
<path d="M0 0 C2.98095703 -0.34057617 2.98095703 -0.34057617 6.7578125 -0.29296875 C7.42086395 -0.28872391 8.08391541 -0.28447906 8.76705933 -0.28010559 C10.88678441 -0.26329971 13.00556188 -0.22564701 15.125 -0.1875 C16.56118419 -0.17245549 17.99738328 -0.15876668 19.43359375 -0.14648438 C22.95603764 -0.1133909 26.47792636 -0.0615968 30 0 C29.01 1.485 29.01 1.485 28 3 C25.01904297 3.34057617 25.01904297 3.34057617 21.2421875 3.29296875 C20.57913605 3.28872391 19.91608459 3.28447906 19.23294067 3.28010559 C17.11321559 3.26329971 14.99443812 3.22564701 12.875 3.1875 C11.43881581 3.17245549 10.00261672 3.15876668 8.56640625 3.14648438 C5.04396236 3.1133909 1.52207364 3.0615968 -2 3 C-1.34 2.01 -0.68 1.02 0 0 Z " fill="#030F02" transform="translate(739,785)"/>
<path d="M0 0 C1.32 0.33 2.64 0.66 4 1 C0.13290039 5.49118485 -3.80802008 9.80802008 -8 14 C-8.66 14.825 -9.32 15.65 -10 16.5 C-13.53532909 20.91916137 -17.52715997 24.5495234 -22 28 C-22 26.68 -22 25.36 -22 24 C-21.34 24 -20.68 24 -20 24 C-19.34 22.35 -18.68 20.7 -18 19 C-17.34 19 -16.68 19 -16 19 C-16 18.34 -16 17.68 -16 17 C-15.195625 16.7525 -14.39125 16.505 -13.5625 16.25 C-10.828919 15.27761141 -10.828919 15.27761141 -10.1875 12.875 C-10.125625 12.25625 -10.06375 11.6375 -10 11 C-9.34 11 -8.68 11 -8 11 C-8 10.34 -8 9.68 -8 9 C-7.34 9 -6.68 9 -6 9 C-6 8.34 -6 7.68 -6 7 C-5.34 7 -4.68 7 -4 7 C-4 6.34 -4 5.68 -4 5 C-3.34 5 -2.68 5 -2 5 C-2 4.34 -2 3.68 -2 3 C-1.34 3 -0.68 3 0 3 C0 2.01 0 1.02 0 0 Z " fill="#96C648" transform="translate(641,390)"/>
<path d="M0 0 C0.33 1.32 0.66 2.64 1 4 C0.34 4 -0.32 4 -1 4 C-1.0825 4.5775 -1.165 5.155 -1.25 5.75 C-2.21797787 8.6539336 -3.68694284 10.03740604 -6 12 C-6.66 12 -7.32 12 -8 12 C-8 12.66 -8 13.32 -8 14 C-9.66666667 15.66666667 -11.33333333 17.33333333 -13 19 C-13.70125 20.051875 -14.4025 21.10375 -15.125 22.1875 C-17 25 -17 25 -20 27 C-20 26.34 -20 25.68 -20 25 C-20.66 24.67 -21.32 24.34 -22 24 C-21.25556641 23.27296875 -21.25556641 23.27296875 -20.49609375 22.53125 C-15.76629259 17.86427353 -11.3242383 13.04171281 -7 8 C-5.68895657 6.49872674 -4.37649374 4.99869166 -3.0625 3.5 C-2.47597656 2.8296875 -1.88945312 2.159375 -1.28515625 1.46875 C-0.86105469 0.9840625 -0.43695313 0.499375 0 0 Z " fill="#93BF49" transform="translate(505,344)"/>
<path d="M0 0 C3.49441809 3.2355723 6.64675619 6.84324556 9 11 C9 11.99 9 12.98 9 14 C-8.82 14 -26.64 14 -45 14 C-45 13.67 -45 13.34 -45 13 C-19.755 12.505 -19.755 12.505 6 12 C5.505 10.02 5.505 10.02 5 8 C4.01 7.67 3.02 7.34 2 7 C0.8125 3.4375 0.8125 3.4375 0 0 Z " fill="#A9DF4D" transform="translate(771,769)"/>
<path d="M0 0 C0.66 0.66 1.32 1.32 2 2 C1.51007568 2.48879639 1.02015137 2.97759277 0.51538086 3.48120117 C-1.69295444 5.70163118 -3.87766017 7.9439575 -6.0625 10.1875 C-6.83400391 10.95642578 -7.60550781 11.72535156 -8.40039062 12.51757812 C-9.48803711 13.64389648 -9.48803711 13.64389648 -10.59765625 14.79296875 C-11.61098022 15.82200317 -11.61098022 15.82200317 -12.64477539 16.87182617 C-14.26298228 18.94530344 -14.26298228 18.94530344 -13.81030273 21.5871582 C-12.88594952 24.33960858 -11.59113045 26.57871453 -10 29 C-11.32 28.67 -12.64 28.34 -14 28 C-14 27.01 -14 26.02 -14 25 C-14.99 24.67 -15.98 24.34 -17 24 C-17.20140476 20.37471432 -16.85776765 18.13498292 -15 15 C-14.34 15 -13.68 15 -13 15 C-13 14.01 -13 13.02 -13 12 C-12.01 11.67 -11.02 11.34 -10 11 C-8.99357052 9.67151309 -7.99307821 8.33849671 -7 7 C-6.34 7 -5.68 7 -5 7 C-4.34 5.68 -3.68 4.36 -3 3 C-2.34 3 -1.68 3 -1 3 C-0.67 2.01 -0.34 1.02 0 0 Z " fill="#99C84E" transform="translate(574,464)"/>
<path d="M0 0 C4.20763224 1.5027258 5.8027758 4.23332995 8 8 C8 8.66 8 9.32 8 10 C8.99 10.33 9.98 10.66 11 11 C13 14 13 14 13 17 C13.61875 17.268125 14.2375 17.53625 14.875 17.8125 C17 19 17 19 19 22 C19 22.99 19 23.98 19 25 C19.99 25.33 20.98 25.66 22 26 C22.12375 26.804375 22.2475 27.60875 22.375 28.4375 C22.58125 29.283125 22.7875 30.12875 23 31 C23.66 31.33 24.32 31.66 25 32 C24.01 32 23.02 32 22 32 C20.7109375 30.453125 20.7109375 30.453125 19.375 28.25 C16.92745061 24.3812929 14.33154942 20.70896542 11.5625 17.0625 C0 1.77648305 0 1.77648305 0 0 Z " fill="#9ECA4F" transform="translate(536,703)"/>
<path d="M0 0 C0.99 0.33 1.98 0.66 3 1 C1.90751403 2.50852857 0.80061501 4.00662831 -0.3125 5.5 C-0.92738281 6.3353125 -1.54226563 7.170625 -2.17578125 8.03125 C-2.77777344 8.6809375 -3.37976563 9.330625 -4 10 C-4.99 10 -5.98 10 -7 10 C-7 22.87 -7 35.74 -7 49 C-7.33 49 -7.66 49 -8 49 C-8 35.8 -8 22.6 -8 9 C-7.34 9 -6.68 9 -6 9 C-6 8.34 -6 7.68 -6 7 C-5.34 7 -4.68 7 -4 7 C-4 6.34 -4 5.68 -4 5 C-3.34 5 -2.68 5 -2 5 C-1.34 3.35 -0.68 1.7 0 0 Z " fill="#A7DD44" transform="translate(405,633)"/>
<path d="M0 0 C0.33 0 0.66 0 1 0 C1.4375 2.125 1.4375 2.125 1 5 C-0.64450618 6.68766907 -2.38278252 8.06828085 -4.2734375 9.47265625 C-6.19616849 11.17353367 -6.91422875 12.70018072 -8 15 C-10.4375 17.3125 -10.4375 17.3125 -13 19 C-13.99 18.67 -14.98 18.34 -16 18 C-15.58637207 17.56131592 -15.17274414 17.12263184 -14.74658203 16.6706543 C-12.87047194 14.67837396 -10.99770793 12.68297841 -9.125 10.6875 C-8.47402344 9.99720703 -7.82304688 9.30691406 -7.15234375 8.59570312 C-6.21455078 7.59506836 -6.21455078 7.59506836 -5.2578125 6.57421875 C-4.6817627 5.96151123 -4.10571289 5.34880371 -3.51220703 4.7175293 C-1.81445712 2.86632011 -1.81445712 2.86632011 0 0 Z " fill="#95C245" transform="translate(558,285)"/>
<path d="M0 0 C1 3 1 3 -0.1875 5.5625 C-2.06425129 8.08640691 -3.23518464 8.70975283 -6 10 C-6.33 10.99 -6.66 11.98 -7 13 C-8.4375 14.6875 -8.4375 14.6875 -10 16 C-10.66 16 -11.32 16 -12 16 C-11.14590173 11.49580017 -8.52252531 8.96982667 -5.4375 5.75 C-4.91736328 5.19570313 -4.39722656 4.64140625 -3.86132812 4.0703125 C-2.58069015 2.70743172 -1.2911951 1.35288317 0 0 Z " fill="#97C643" transform="translate(415,444)"/>
<path d="M0 0 C0.33 0.66 0.66 1.32 1 2 C-1.80341805 8.67584377 -5.46092232 14.34213922 -11 19 C-11.66 19 -12.32 19 -13 19 C-12.34 17.68 -11.68 16.36 -11 15 C-10.34 15 -9.68 15 -9 15 C-8.814375 14.01 -8.62875 13.02 -8.4375 12 C-7.05167486 6.98023339 -3.55105273 3.65549546 0 0 Z " fill="#A6DC44" transform="translate(482,369)"/>
<path d="M0 0 C3.85550018 3.63635985 6.86741138 7.41691848 9.8125 11.8125 C10.21919922 12.40998047 10.62589844 13.00746094 11.04492188 13.62304688 C12.03479703 15.07874564 13.01809735 16.53891174 14 18 C13.67 18.66 13.34 19.32 13 20 C12.34 20 11.68 20 11 20 C10.46375 19.01 9.9275 18.02 9.375 17 C7.28331312 13.30568972 4.80794664 10.02040802 2.171875 6.69921875 C1 5 1 5 1 3 C0.34 2.67 -0.32 2.34 -1 2 C-0.67 1.34 -0.34 0.68 0 0 Z " fill="#94C14A" transform="translate(588,525)"/>
<path d="M0 0 C0.99 0.33 1.98 0.66 3 1 C2.25556641 1.72703125 2.25556641 1.72703125 1.49609375 2.46875 C-2.66275062 6.57235356 -6.61223546 10.7544468 -10.359375 15.23828125 C-12.09262501 17.09946162 -13.92644427 18.5349878 -16 20 C-14.76067171 16.56801397 -13.49698489 13.69674368 -11 11 C-10.01 11 -9.02 11 -8 11 C-7.67 9.68 -7.34 8.36 -7 7 C-6.34 7 -5.68 7 -5 7 C-5 6.34 -5 5.68 -5 5 C-4.34 5 -3.68 5 -3 5 C-3 4.34 -3 3.68 -3 3 C-2.34 3 -1.68 3 -1 3 C-0.67 2.01 -0.34 1.02 0 0 Z " fill="#99CA49" transform="translate(440,596)"/>
<path d="M0 0 C4.85110358 4.41009417 8.348107 9.58004353 12 15 C11.01 15.99 10.02 16.98 9 18 C8.34 17.67 7.68 17.34 7 17 C6.5 14.5 6.5 14.5 6 12 C4.33074369 8.13036036 3.54809863 6.36539909 0 4 C0 2.68 0 1.36 0 0 Z " fill="#90BD44" transform="translate(666,629)"/>
<path d="M0 0 C0.99 0.33 1.98 0.66 3 1 C-1.16048113 5.84979161 -5.31778162 10.64444802 -10 15 C-10.66 15 -11.32 15 -12 15 C-11.67 13.68 -11.34 12.36 -11 11 C-10.01 11 -9.02 11 -8 11 C-7.7525 10.46375 -7.505 9.9275 -7.25 9.375 C-3.14285714 1.57142857 -3.14285714 1.57142857 0 0 Z " fill="#9AC950" transform="translate(753,268)"/>
<path d="M0 0 C4.87072783 4.56630734 8.89156398 9.74976539 13 15 C12.67 15.66 12.34 16.32 12 17 C11.01 16.67 10.02 16.34 9 16 C8.33333333 14.66666667 7.66666667 13.33333333 7 12 C6.175 11.236875 5.35 10.47375 4.5 9.6875 C1.45074319 6.40954893 0.92873731 4.30596389 0 0 Z " fill="#93BF47" transform="translate(724,707)"/>
<path d="M0 0 C0.99 0.33 1.98 0.66 3 1 C0.87562828 3.29224977 -1.24960519 5.58369884 -3.375 7.875 C-3.97828125 8.52597656 -4.5815625 9.17695313 -5.203125 9.84765625 C-5.78320312 10.47285156 -6.36328125 11.09804688 -6.9609375 11.7421875 C-7.76217041 12.60626221 -7.76217041 12.60626221 -8.57958984 13.48779297 C-9.69840867 14.67891773 -10.84446251 15.84446251 -12 17 C-11.67 15.02 -11.34 13.04 -11 11 C-10.34 11 -9.68 11 -9 11 C-9 10.34 -9 9.68 -9 9 C-8.34 9 -7.68 9 -7 9 C-7 8.34 -7 7.68 -7 7 C-5.68 6.34 -4.36 5.68 -3 5 C-3 4.01 -3 3.02 -3 2 C-2.01 1.34 -1.02 0.68 0 0 Z " fill="#93C048" transform="translate(616,418)"/>
<path d="M0 0 C4.85110358 4.41009417 8.348107 9.58004353 12 15 C11.34 15.66 10.68 16.32 10 17 C10 16.34 10 15.68 10 15 C9.01 14.67 8.02 14.34 7 14 C4 9.66666667 4 9.66666667 4 7 C3.01 6.67 2.02 6.34 1 6 C0.67 4.02 0.34 2.04 0 0 Z " fill="#9DCB4C" transform="translate(602,544)"/>
<path d="M0 0 C0.66 0.66 1.32 1.32 2 2 C-0.12437172 4.29224977 -2.24960519 6.58369884 -4.375 8.875 C-4.97828125 9.52597656 -5.5815625 10.17695313 -6.203125 10.84765625 C-6.78320312 11.47285156 -7.36328125 12.09804688 -7.9609375 12.7421875 C-8.76217041 13.60626221 -8.76217041 13.60626221 -9.57958984 14.48779297 C-10.69840867 15.67891773 -11.84446251 16.84446251 -13 18 C-13 16.68 -13 15.36 -13 14 C-12.34 14 -11.68 14 -11 14 C-10.34 12.35 -9.68 10.7 -9 9 C-8.34 9 -7.68 9 -7 9 C-7 8.34 -7 7.68 -7 7 C-6.34 7 -5.68 7 -5 7 C-5 6.34 -5 5.68 -5 5 C-4.34 5 -3.68 5 -3 5 C-2.690625 4.360625 -2.38125 3.72125 -2.0625 3.0625 C-1 1 -1 1 0 0 Z " fill="#9AC94A" transform="translate(702,324)"/>
<path d="M0 0 C0.66 0 1.32 0 2 0 C2.391875 0.886875 2.78375 1.77375 3.1875 2.6875 C4.85199172 6.09777813 4.85199172 6.09777813 7.625 8.625 C9.91169918 10.91169918 10.65180724 11.86626517 11 15 C10.01 15 9.02 15 8 15 C6.26404821 13.09576717 4.76249568 11.25584977 3.25 9.1875 C2.61384766 8.36668945 2.61384766 8.36668945 1.96484375 7.52929688 C0.765625 5.91796875 0.765625 5.91796875 -1 3 C-0.67 2.01 -0.34 1.02 0 0 Z " fill="#95C249" transform="translate(474,616)"/>
<path d="M0 0 C3.61097716 1.20365905 3.87109031 2.00042499 5.625 5.25 C6.05039062 6.01828125 6.47578125 6.7865625 6.9140625 7.578125 C8.02632897 10.05871929 8.5728434 12.32315197 9 15 C5.40155208 11.60146585 2.63778905 8.18407919 0 4 C-0.66 3.01 -1.32 2.02 -2 1 C-1.34 0.67 -0.68 0.34 0 0 Z " fill="#9AC949" transform="translate(497,647)"/>
<path d="M0 0 C0.66 0.33 1.32 0.66 2 1 C-2.66666667 6.33333333 -7.33333333 11.66666667 -12 17 C-12.33 16.01 -12.66 15.02 -13 14 C-12.67 13.34 -12.34 12.68 -12 12 C-11.34 12 -10.68 12 -10 12 C-10 11.34 -10 10.68 -10 10 C-9.34 10 -8.68 10 -8 10 C-8 9.34 -8 8.68 -8 8 C-7.34 8 -6.68 8 -6 8 C-6 7.34 -6 6.68 -6 6 C-5.34 6 -4.68 6 -4 6 C-4 5.34 -4 4.68 -4 4 C-3.34 4 -2.68 4 -2 4 C-2 3.34 -2 2.68 -2 2 C-1.34 2 -0.68 2 0 2 C0 1.34 0 0.68 0 0 Z " fill="#96C649" transform="translate(601,435)"/>
<path d="M0 0 C7.92 0 15.84 0 24 0 C22.875 5.625 22.875 5.625 20 8 C19.67 6.68 19.34 5.36 19 4 C20.32 3.67 21.64 3.34 23 3 C23 2.34 23 1.68 23 1 C15.41 1 7.82 1 0 1 C0 0.67 0 0.34 0 0 Z " fill="#A6D94D" transform="translate(754,241)"/>
<path d="M0 0 C0.99 0.33 1.98 0.66 3 1 C2.34 1 1.68 1 1 1 C0.7834375 2.0828125 0.7834375 2.0828125 0.5625 3.1875 C0 6 0 6 -0.8125 8.4375 C-1.08947868 12.22287534 0.75822623 14.07890085 3 17 C1.68 16.67 0.36 16.34 -1 16 C-1 15.01 -1 14.02 -1 13 C-1.99 12.67 -2.98 12.34 -4 12 C-4.20140476 8.37471432 -3.85776765 6.13498292 -2 3 C-1.34 3 -0.68 3 0 3 C0 2.01 0 1.02 0 0 Z " fill="#9FD248" transform="translate(561,476)"/>
<path d="M0 0 C4.73751475 1.18437869 5.15741989 2.12377253 7.75 6.0625 C8.36359375 6.98160156 8.9771875 7.90070312 9.609375 8.84765625 C10.06828125 9.55792969 10.5271875 10.26820313 11 11 C10.01 11.495 10.01 11.495 9 12 C8.34 11.34 7.68 10.68 7 10 C6.34 10 5.68 10 5 10 C3.35 6.7 1.7 3.4 0 0 Z " fill="#9AC650" transform="translate(655,617)"/>
<path d="M0 0 C0.33 0.66 0.66 1.32 1 2 C0.34 2 -0.32 2 -1 2 C-1.226875 2.721875 -1.45375 3.44375 -1.6875 4.1875 C-3.27279974 7.58457087 -5.15923323 9.5749552 -8 12 C-8.99 12 -9.98 12 -11 12 C-9.60609461 8.84280428 -7.96365028 6.7187347 -5.5 4.3125 C-4.8915625 3.71050781 -4.283125 3.10851562 -3.65625 2.48828125 C-2 1 -2 1 0 0 Z " fill="#98C349" transform="translate(427,432)"/>
<path d="M0 0 C3.01693943 2.85674795 5.40554531 5.82348931 7.75 9.25 C8.67039062 10.58804688 8.67039062 10.58804688 9.609375 11.953125 C10.06828125 12.62859375 10.5271875 13.3040625 11 14 C10.34 14.66 9.68 15.32 9 16 C9 15.34 9 14.68 9 14 C8.01 13.67 7.02 13.34 6 13 C5.855625 12.401875 5.71125 11.80375 5.5625 11.1875 C5.15479794 8.81245298 5.15479794 8.81245298 3 7.0625 C0.70080717 4.69145739 0.35863113 3.22768018 0 0 Z " fill="#92BE49" transform="translate(615,561)"/>
<path d="M0 0 C3.9252025 3.70090521 6.94580156 7.54959656 10 12 C9.01 12.33 8.02 12.66 7 13 C6.34 11.35 5.68 9.7 5 8 C4.34 8 3.68 8 3 8 C0.25624329 5.04518508 0 4.22528092 0 0 Z " fill="#98C550" transform="translate(680,648)"/>
<path d="M0 0 C8.91 0 17.82 0 27 0 C25.68 1.32 24.36 2.64 23 4 C23 3.01 23 2.02 23 1 C15.41 1 7.82 1 0 1 C0 0.67 0 0.34 0 0 Z " fill="#97C256" transform="translate(755,240)"/>
<path d="M0 0 C0.99 0.33 1.98 0.66 3 1 C1.88200014 2.33920838 0.75538103 3.67122556 -0.375 5 C-1.00148438 5.7425 -1.62796875 6.485 -2.2734375 7.25 C-3.12808594 8.11625 -3.12808594 8.11625 -4 9 C-4.66 9 -5.32 9 -6 9 C-6.33 9.99 -6.66 10.98 -7 12 C-7.75 10.25 -7.75 10.25 -8 8 C-6.1875 5.75 -6.1875 5.75 -4 4 C-3.34 4 -2.68 4 -2 4 C-2 3.34 -2 2.68 -2 2 C-1.34 2 -0.68 2 0 2 C0 1.34 0 0.68 0 0 Z " fill="#99C94D" transform="translate(417,621)"/>
<path d="M0 0 C2.25 0.0625 2.25 0.0625 5 1 C6.86135162 3.24865149 7.78061322 5.27982948 9 8 C8.67 8.99 8.34 9.98 8 11 C6.66375099 9.35653302 5.33107149 7.71016314 4 6.0625 C3.2575 5.14597656 2.515 4.22945312 1.75 3.28515625 C0 1 0 1 0 0 Z " fill="#90B945" transform="translate(527,692)"/>
<path d="M0 0 C0.66 0.33 1.32 0.66 2 1 C-0.64 3.97 -3.28 6.94 -6 10 C-6.33 9.01 -6.66 8.02 -7 7 C-6.34 6.01 -5.68 5.02 -5 4 C-4.34 4 -3.68 4 -3 4 C-3 3.01 -3 2.02 -3 1 C-2.01 0.67 -1.02 0.34 0 0 Z " fill="#91BF47" transform="translate(763,258)"/>
<path d="M0 0 C2.64 0 5.28 0 8 0 C7.67 0.99 7.34 1.98 7 3 C2.38 3 -2.24 3 -7 3 C-7 2.67 -7 2.34 -7 2 C-4.69 2 -2.38 2 0 2 C0 1.34 0 0.68 0 0 Z " fill="#020F01" transform="translate(247,236)"/>
<path d="M0 0 C0.33 0.99 0.66 1.98 1 3 C0.38125 3.5775 -0.2375 4.155 -0.875 4.75 C-2.81347053 6.80249821 -3.90014249 8.43366582 -5 11 C-6.32 10.67 -7.64 10.34 -9 10 C-6.03 6.7 -3.06 3.4 0 0 Z " fill="#90B849" transform="translate(473,379)"/>
<path d="M0 0 C0.66 0 1.32 0 2 0 C2 0.66 2 1.32 2 2 C2.598125 2.226875 3.19625 2.45375 3.8125 2.6875 C6.56351888 4.33811133 7.52484637 6.1972081 9 9 C8.34 9.66 7.68 10.32 7 11 C5.83051998 9.35616456 4.6644855 7.70987731 3.5 6.0625 C2.8503125 5.14597656 2.200625 4.22945312 1.53125 3.28515625 C0 1 0 1 0 0 Z " fill="#9BC44D" transform="translate(585,770)"/>
<path d="M0 0 C4.2742558 1.5830577 6.26531794 4.50568404 9 8 C8.01 8.66 7.02 9.32 6 10 C4.99723227 8.52270825 3.99785546 7.04311423 3 5.5625 C2.443125 4.73878906 1.88625 3.91507813 1.3125 3.06640625 C0 1 0 1 0 0 Z " fill="#99C54B" transform="translate(506,662)"/>
<path d="M0 0 C0.33 0.66 0.66 1.32 1 2 C-0.55599625 6.50419967 -1.81168455 9.5447806 -6 12 C-5.01 9.03 -4.02 6.06 -3 3 C-2.34 3 -1.68 3 -1 3 C-0.67 2.01 -0.34 1.02 0 0 Z " fill="#95C53F" transform="translate(438,418)"/>
<path d="M0 0 C0.99 0.33 1.98 0.66 3 1 C0 4 -3 7 -6 10 C-6.33 9.01 -6.66 8.02 -7 7 C-6.34 7 -5.68 7 -5 7 C-5 6.34 -5 5.68 -5 5 C-4.34 5 -3.68 5 -3 5 C-3 4.34 -3 3.68 -3 3 C-2.34 3 -1.68 3 -1 3 C-0.67 2.01 -0.34 1.02 0 0 Z " fill="#9ACA4A" transform="translate(682,346)"/>
<path d="M0 0 C1 3 1 3 -0.4375 6.1875 C-1.2109375 7.5796875 -1.2109375 7.5796875 -2 9 C-3.65 9 -5.3 9 -7 9 C-6.02180976 7.68677212 -5.0424189 6.37443848 -4.0625 5.0625 C-3.51722656 4.33160156 -2.97195313 3.60070312 -2.41015625 2.84765625 C-1 1 -1 1 0 0 Z " fill="#90BC45" transform="translate(585,255)"/>
<path d="M0 0 C3.9036874 3.46994436 6.36588975 7.55224006 9 12 C7.68 11.67 6.36 11.34 5 11 C5 10.01 5 9.02 5 8 C4.01 7.67 3.02 7.34 2 7 C0.8125 3.4375 0.8125 3.4375 0 0 Z " fill="#8EB44B" transform="translate(771,769)"/>
<path d="M0 0 C1.32 0.33 2.64 0.66 4 1 C4 1.99 4 2.98 4 4 C4.99 4.33 5.98 4.66 7 5 C7.12375 5.804375 7.2475 6.60875 7.375 7.4375 C7.684375 8.7059375 7.684375 8.7059375 8 10 C8.66 10.33 9.32 10.66 10 11 C9.01 11 8.02 11 7 11 C5.4296875 9.1015625 5.4296875 9.1015625 3.875 6.625 C3.35679687 5.81289063 2.83859375 5.00078125 2.3046875 4.1640625 C1 2 1 2 0 0 Z " fill="#96C148" transform="translate(551,724)"/>
<path d="M0 0 C0.99 0.33 1.98 0.66 3 1 C1.88266271 2.50571657 0.75589965 4.00444292 -0.375 5.5 C-1.00148438 6.3353125 -1.62796875 7.170625 -2.2734375 8.03125 C-2.84320313 8.6809375 -3.41296875 9.330625 -4 10 C-4.66 10 -5.32 10 -6 10 C-6 9.01 -6 8.02 -6 7 C-5.34 7 -4.68 7 -4 7 C-4 6.34 -4 5.68 -4 5 C-3.34 5 -2.68 5 -2 5 C-1.34 3.35 -0.68 1.7 0 0 Z " fill="#96C546" transform="translate(405,633)"/>
<path d="M0 0 C0.33 0.66 0.66 1.32 1 2 C-0.21958756 4.67371119 -1.18298261 6.75412136 -3 9 C-5.75 9.9375 -5.75 9.9375 -8 10 C-7.59007812 9.52949219 -7.18015625 9.05898438 -6.7578125 8.57421875 C-6.21898437 7.95160156 -5.68015625 7.32898438 -5.125 6.6875 C-4.59132813 6.07261719 -4.05765625 5.45773437 -3.5078125 4.82421875 C-1.8359553 2.86501788 -1.8359553 2.86501788 0 0 Z " fill="#94C050" transform="translate(482,369)"/>
<path d="M0 0 C0.99 0 1.98 0 3 0 C6 4.22222222 6 4.22222222 6 7 C6.66 7 7.32 7 8 7 C8.33 8.65 8.66 10.3 9 12 C5.0963126 8.53005564 2.63411025 4.44775994 0 0 Z " fill="#95C04A" transform="translate(456,594)"/>
<path d="M0 0 C0.66 1.32 1.32 2.64 2 4 C-0.31 5.65 -2.62 7.3 -5 9 C-5.66 8.67 -6.32 8.34 -7 8 C-4.69 5.36 -2.38 2.72 0 0 Z " fill="#93BF47" transform="translate(513,335)"/>
<path d="M0 0 C3.28788824 3.11016455 5.83735988 6.01618925 8 10 C7.34 10 6.68 10 6 10 C5.34 9.34 4.68 8.68 4 8 C3.484375 7.566875 2.96875 7.13375 2.4375 6.6875 C0.61180591 4.54429389 0.37189037 2.75198877 0 0 Z " fill="#89B243" transform="translate(760,755)"/>
<path d="M0 0 C3.67033927 3.27708863 5.69281189 6.71522208 8 11 C7.01 11 6.02 11 5 11 C4.731875 10.030625 4.46375 9.06125 4.1875 8.0625 C3.795625 7.051875 3.40375 6.04125 3 5 C2.01 4.67 1.02 4.34 0 4 C0 2.68 0 1.36 0 0 Z " fill="#91BA4B" transform="translate(708,685)"/>
<path d="M0 0 C-1.49097658 3.7952131 -3.75700849 5.61042731 -7 8 C-7 6.68 -7 5.36 -7 4 C-6.34 4 -5.68 4 -5 4 C-4.67 3.01 -4.34 2.02 -4 1 C-2 0 -2 0 0 0 Z " fill="#92C049" transform="translate(626,410)"/>
<path d="M0 0 C0.66 0 1.32 0 2 0 C0.71111971 2.8751945 -0.53266983 5.0071564 -3 7 C-5.1875 7.6875 -5.1875 7.6875 -7 8 C-7 7.34 -7 6.68 -7 6 C-6.34 6 -5.68 6 -5 6 C-5 5.34 -5 4.68 -5 4 C-3.35 3.34 -1.7 2.68 0 2 C0 1.34 0 0.68 0 0 Z " fill="#9DCF4A" transform="translate(630,403)"/>
<path d="M0 0 C0.33 0.99 0.66 1.98 1 3 C0.67 3.66 0.34 4.32 0 5 C-0.66 5 -1.32 5 -2 5 C-2 5.66 -2 6.32 -2 7 C-3.65 7.33 -5.3 7.66 -7 8 C-6.02133662 6.85373678 -5.04205413 5.70800212 -4.0625 4.5625 C-3.51722656 3.92441406 -2.97195313 3.28632813 -2.41015625 2.62890625 C-1.63204305 1.73008851 -0.84063472 0.84063472 0 0 Z " fill="#8BB345" transform="translate(499,351)"/>
<path d="M0 0 C0.99 0 1.98 0 3 0 C4.32 2.97 5.64 5.94 7 9 C6.34 9 5.68 9 5 9 C3.7109375 7.5390625 3.7109375 7.5390625 2.375 5.625 C1.92898438 4.99851562 1.48296875 4.37203125 1.0234375 3.7265625 C0 2 0 2 0 0 Z " fill="#A3D14E" transform="translate(766,765)"/>
<path d="M0 0 C1.32 0.33 2.64 0.66 4 1 C4.33 2.65 4.66 4.3 5 6 C5.99 6 6.98 6 8 6 C7.34 7.32 6.68 8.64 6 10 C4.99723227 8.52270825 3.99785546 7.04311423 3 5.5625 C2.443125 4.73878906 1.88625 3.91507813 1.3125 3.06640625 C0 1 0 1 0 0 Z " fill="#96C14A" transform="translate(560,736)"/>
<path d="M0 0 C3.28788824 3.11016455 5.83735988 6.01618925 8 10 C7.01 9.67 6.02 9.34 5 9 C5 8.34 5 7.68 5 7 C4.360625 6.773125 3.72125 6.54625 3.0625 6.3125 C1 5 1 5 0.25 2.375 C0.1675 1.59125 0.085 0.8075 0 0 Z " fill="#99C84C" transform="translate(574,507)"/>
<path d="M0 0 C2.96404505 2.80804268 5.44499019 5.18315774 7 9 C3.34683329 7.75023244 2.21934164 7.32901247 0 4 C0 2.68 0 1.36 0 0 Z " fill="#94C049" transform="translate(567,497)"/>
<path d="M0 0 C0.33 0.99 0.66 1.98 1 3 C-0.40445835 5.2636564 -2.1967913 7.0208685 -4 9 C-5.125 5.25 -5.125 5.25 -4 3 C-3.34 3 -2.68 3 -2 3 C-2 2.34 -2 1.68 -2 1 C-1.34 0.67 -0.68 0.34 0 0 Z " fill="#99CA4A" transform="translate(609,426)"/>
<path d="M0 0 C0.66 0.33 1.32 0.66 2 1 C-0.31 3.64 -2.62 6.28 -5 9 C-5.33 8.01 -5.66 7.02 -6 6 C-5.01 5.67 -4.02 5.34 -3 5 C-3 4.34 -3 3.68 -3 3 C-2.34 3 -1.68 3 -1 3 C-0.67 2.01 -0.34 1.02 0 0 Z " fill="#92BA4D" transform="translate(710,316)"/>
<path d="M0 0 C0.99 0 1.98 0 3 0 C4.75 1.75 4.75 1.75 6 4 C5.578125 6.140625 5.578125 6.140625 5 8 C4.16382818 6.8562364 3.33113541 5.70992861 2.5 4.5625 C2.0359375 3.92441406 1.571875 3.28632812 1.09375 2.62890625 C0 1 0 1 0 0 Z " fill="#93BC4A" transform="translate(500,654)"/>
<path d="M0 0 C4.875 4.75 4.875 4.75 6 7 C4.35 6.67 2.7 6.34 1 6 C0.67 4.02 0.34 2.04 0 0 Z " fill="#92C048" transform="translate(602,544)"/>
<path d="M0 0 C1 3 1 3 0.0625 5.1875 C-0.4634375 6.0846875 -0.4634375 6.0846875 -1 7 C-1.99 6.67 -2.98 6.34 -4 6 C-2.84826645 3.53199953 -1.95216435 1.95216435 0 0 Z " fill="#8EBA3F" transform="translate(446,409)"/>
<path d="M0 0 C0.66 0 1.32 0 2 0 C1.69381595 3.67420866 1.24228216 4.78135513 -1.5625 7.3125 C-2.366875 7.869375 -3.17125 8.42625 -4 9 C-3.71125 8.443125 -3.4225 7.88625 -3.125 7.3125 C-1.9586747 4.91505355 -0.9660119 2.48403061 0 0 Z " fill="#A5DA47" transform="translate(483,369)"/>
<path d="M0 0 C0.99 0.66 1.98 1.32 3 2 C0.03 4.475 0.03 4.475 -3 7 C-2.25 2.25 -2.25 2.25 0 0 Z " fill="#92C147" transform="translate(740,282)"/>
<path d="M0 0 C4.875 4.625 4.875 4.625 6 8 C5.01 8 4.02 8 3 8 C0 2.25 0 2.25 0 0 Z " fill="#94BF4B" transform="translate(746,736)"/>
<path d="M0 0 C1.65 1.65 3.3 3.3 5 5 C4.67 5.99 4.34 6.98 4 8 C2 6.25 2 6.25 0 4 C0 2.68 0 1.36 0 0 Z " fill="#91BE44" transform="translate(740,728)"/>
<path d="M0 0 C1.32 0.33 2.64 0.66 4 1 C4.33 2.65 4.66 4.3 5 6 C4.01 5.67 3.02 5.34 2 5 C0.8125 2.4375 0.8125 2.4375 0 0 Z " fill="#A2D053" transform="translate(655,617)"/>
<path d="M0 0 C3.82946843 1.45255699 5.12050295 3.42895561 7 7 C6.01 7 5.02 7 4 7 C2.02 3.535 2.02 3.535 0 0 Z " fill="#99C552" transform="translate(650,610)"/>
<path d="M0 0 C0.6875 1.8125 0.6875 1.8125 1 4 C-0.4375 5.75 -0.4375 5.75 -2 7 C-2.99 6.67 -3.98 6.34 -5 6 C-3.35 4.02 -1.7 2.04 0 0 Z " fill="#90BB43" transform="translate(523,324)"/>
<path d="M0 0 C0.33 0.99 0.66 1.98 1 3 C-0.28965176 4.37562854 -1.62689293 5.70766393 -3 7 C-3.66 7 -4.32 7 -5 7 C-4.67 5.68 -4.34 4.36 -4 3 C-3.01 3 -2.02 3 -1 3 C-0.67 2.01 -0.34 1.02 0 0 Z " fill="#A5D654" transform="translate(746,276)"/>
</svg>
